<?xml version="1.0" encoding="utf-8"?>
<!-- Generator: Adobe Illustrator 24.1.2, SVG Export Plug-In . SVG Version: 6.00 Build 0)  -->
<svg version="1.1" id="Camada_1" xmlns="http://www.w3.org/2000/svg" xmlns:xlink="http://www.w3.org/1999/xlink" x="0px" y="0px"
	 viewBox="0 0 420 60" style="enable-background:new 0 0 420 60;" xml:space="preserve">
<style type="text/css">
	.st0{fill:#343838;}
	.st1{fill:#006F77;}
	.st2{fill:#FFFFFF;}
</style>
<path class="st0" d="M402.06,60H18.44C8.47,60,0.38,51.91,0.38,41.94V19.38c0-9.98,8.09-18.06,18.06-18.06h383.61
	c9.98,0,18.06,8.09,18.06,18.06v22.55C420.12,51.91,412.03,60,402.06,60z"/>
<path class="st1" d="M401.26,58.68H19.77c-9.98,0-18.06-8.09-18.06-18.06V18.06C1.7,8.09,9.79,0,19.77,0l381.5,0
	c9.98,0,18.06,8.09,18.06,18.06v22.55C419.32,50.59,411.24,58.68,401.26,58.68z"/>
<g>
	<path class="st0" d="M14.12,9.99h7.48c0.44,0.49,3.94,5.78,10.5,15.89c0.12,0.16,0.2,0.23,0.24,0.23
		c6.6-10.18,10.13-15.56,10.59-16.12h10.59c0.1,0.02,0.15,0.08,0.15,0.17V51.5c0,0.12-0.05,0.17-0.15,0.17h-10.5
		c-0.12,0-0.18-0.06-0.18-0.17V27.47h-0.09c-5.98,8.48-9.45,13.29-10.41,14.43h-0.09L21.78,27.47v23.94c0,0.12-0.06,0.17-0.18,0.17
		c-5.03,0.06-8.56,0.09-10.59,0.09l-0.06-0.17V13.07c0-1.47,0.68-2.44,2.03-2.91C13.24,10.05,13.62,9.99,14.12,9.99z"/>
	<path class="st0" d="M65.82,9.99c0.1,0.02,0.15,0.08,0.15,0.17v41.26c0,0.12-0.05,0.17-0.15,0.17c-5.03,0.06-8.56,0.09-10.59,0.09
		l-0.09-0.17V12.84c0.3-1.9,1.27-2.85,2.92-2.85H65.82z"/>
	<path class="st0" d="M70.65,9.99h7.48c0.1,0.02,0.15,0.08,0.15,0.17v20.45C78.41,30.52,82,24,89.08,11.06
		c0.72-0.72,1.6-1.08,2.65-1.08h9.24l0.18,0.09c-7.51,13.62-11.31,20.58-11.39,20.89c0.34,0.39,5.11,7.23,14.31,20.54v0.17H94.06
		c-1.79,0-3.13-0.98-4.03-2.94c-7.71-11.64-11.6-17.56-11.66-17.78h-0.09V51.5c0,0.12-0.05,0.17-0.15,0.17h-10.5
		c-0.12,0-0.18-0.06-0.18-0.17V13.33C67.46,11.1,68.53,9.99,70.65,9.99z"/>
	<path class="st0" d="M123.2,9.99h6.92c0.22,0,5.27,13.9,15.15,41.69h-8.05c-1.63,0-2.71-0.76-3.25-2.27
		c-1.13-3.8-1.87-5.77-2.21-5.91c-0.32-0.23-0.75-0.35-1.28-0.35h-9.57l2.8-7.94c0.28-0.83,1.45-1.19,3.52-1.08
		c0.72-0.06,0.99-0.53,0.83-1.43l-2.62-7.86l-9.6,26.82h-10.26L120,11.5C120.64,10.49,121.7,9.99,123.2,9.99z"/>
	<path class="st0" d="M175.35,9.99l0.18,0.09c-1.39,4.83-2.31,7.7-2.74,8.61c-0.6,0.72-1.62,1.08-3.07,1.08h-12.08v6.6h7.87
		c1.67,0,2.72,0.89,3.16,2.68c1.03,3.05,1.69,5.13,1.97,6.26h-12.91c-0.06,0.83-0.09,1.45-0.09,1.83v3.43
		c0.1,0.83,0.47,1.25,1.1,1.25h10.44c1.93,0,3.16,0.39,3.7,1.16c0.34,0.74,1.22,3.61,2.65,8.61l-0.18,0.09h-28.42
		c-0.12,0-0.18-0.06-0.18-0.17V12.75c0-1.57,1-2.49,3.01-2.76H175.35z"/>
	<path class="st0" d="M180.21,9.99h7.48c0.1,0.02,0.15,0.08,0.15,0.17v30.4c0.12,0.83,0.5,1.25,1.13,1.25h13.57
		c1.87,0,3.04,0.76,3.52,2.27c0.97,3.47,1.69,5.95,2.15,7.42l-0.18,0.09h-12.49c-4.29,0-10.44,0.03-18.43,0.09l-0.09-0.17V13.07
		c0-1.47,0.69-2.44,2.06-2.91C179.33,10.05,179.71,9.99,180.21,9.99z"/>
</g>
<g>
	<path class="st0" d="M231.03,9.74h6.08c0.19,0,4.63,13.9,13.31,41.7h-7.07c-1.43,0-2.38-0.76-2.86-2.27c-1-3.8-1.64-5.77-1.94-5.91
		c-0.28-0.23-0.65-0.35-1.13-0.35h-8.41l2.46-7.94c0.24-0.83,1.27-1.19,3.09-1.08c0.63-0.06,0.87-0.53,0.73-1.43L233,24.61
		l-8.44,26.83h-9.01l12.68-40.19C228.79,10.25,229.72,9.74,231.03,9.74z"/>
	<path class="st0" d="M261.11,9.74c0.72,0.85,5.26,7.78,13.62,20.78V12.74c0.16-2,1.06-3,2.7-3h6.65c0.1,0.02,0.16,0.08,0.16,0.17
		v41.55l-5.45-0.03c-0.84-0.02-1.63-0.51-2.37-1.48c-0.74-0.97-2.1-3.04-4.07-6.2c-7.37-11.02-11.07-16.53-11.11-16.53v23.95
		c0,0.12-0.04,0.17-0.13,0.17c-4.42,0.06-7.52,0.09-9.3,0.09l-0.08-0.17V12.59c0.26-1.9,1.12-2.85,2.57-2.85H261.11z"/>
	<path class="st0" d="M304.21,8.98c4.96,0,9.35,2.23,13.18,6.69c-2.83,3.34-4.52,5.01-5.06,5.01c-0.44,0.06-0.71,0.12-0.81,0.17
		c-0.33,0-1.47-0.39-3.41-1.16c-0.63-0.17-1.33-0.26-2.1-0.26h-1.05c-4.59,0-7.96,2.48-10.09,7.45c-0.45,1.34-0.68,2.56-0.68,3.67
		c0,3.74,1.96,7.03,5.87,9.86c1.57,0.89,3.03,1.34,4.38,1.34c3.74,0,6.65-2.17,8.72-6.52v-0.09H304c1.34-5.45,2.22-8.18,2.62-8.18
		c0.51-0.47,0.96-0.72,1.36-0.76c5.13-0.06,9.09-0.09,11.87-0.09h2.72c0.26,0,0.41,1.06,0.45,3.17v0.41
		c0,9.82-3.91,16.81-11.74,20.98c-2.39,1.01-4.8,1.51-7.23,1.51c-5.22,0-9.83-2.45-13.83-7.36c-3.11-4.21-4.66-8.84-4.66-13.88
		v-1.16c0-5.49,1.98-10.53,5.95-15.13C295.38,10.88,299.61,8.98,304.21,8.98z"/>
	<path class="st0" d="M349.45,9.74l0.16,0.09c-1.22,4.83-2.03,7.7-2.41,8.61c-0.52,0.72-1.42,1.08-2.7,1.08h-10.61v6.61h6.92
		c1.47,0,2.39,0.89,2.78,2.68c0.91,3.05,1.48,5.13,1.73,6.26h-11.34c-0.05,0.83-0.08,1.45-0.08,1.83v3.43
		c0.09,0.83,0.41,1.25,0.97,1.25h9.17c1.69,0,2.78,0.39,3.25,1.16c0.3,0.74,1.07,3.61,2.33,8.61l-0.16,0.09h-24.97
		c-0.1,0-0.16-0.06-0.16-0.17V12.51c0-1.57,0.88-2.49,2.65-2.76H349.45z"/>
	<path class="st0" d="M353.72,9.74h6.58c0.09,0.02,0.13,0.08,0.13,0.17v30.41c0.1,0.83,0.44,1.25,1,1.25h11.92
		c1.64,0,2.67,0.76,3.09,2.27c0.86,3.47,1.48,5.95,1.89,7.42l-0.16,0.09h-10.98c-3.77,0-9.17,0.03-16.19,0.09l-0.08-0.17V12.83
		c0-1.47,0.6-2.44,1.81-2.91C352.95,9.8,353.28,9.74,353.72,9.74z"/>
	<path class="st0" d="M393.91,9.25h1.07c5.33,0,9.99,2.37,13.99,7.1c2.85,3.98,4.27,8.77,4.27,14.38c0,7.41-2.51,13.2-7.52,17.37
		c-3.46,2.56-7,3.84-10.61,3.84h-1.28c-4.96,0-9.4-2.14-13.31-6.43c-3.21-4-4.82-8.82-4.82-14.46v-0.81c0-7.92,2.93-13.94,8.8-18.07
		C387.58,10.22,390.71,9.25,393.91,9.25z M394.51,40.99c2.58,0,4.79-1.05,6.63-3.16c1.83-2.1,2.75-4.65,2.75-7.64
		c0-2.97-0.92-5.5-2.75-7.61c-1.83-2.1-4.04-3.16-6.63-3.16c-2.58,0-4.79,1.05-6.62,3.16c-1.83,2.11-2.74,4.64-2.74,7.61
		c0,2.99,0.91,5.53,2.74,7.64C389.72,39.94,391.93,40.99,394.51,40.99z"/>
</g>
<g>
	<g>
		<path class="st2" d="M14.72,8.93h7.46c0.44,0.49,3.92,5.78,10.46,15.89c0.12,0.16,0.2,0.23,0.24,0.23
			C39.45,14.87,42.97,9.49,43.43,8.93h10.55c0.1,0.02,0.15,0.08,0.15,0.17v41.34c0,0.12-0.05,0.17-0.15,0.17H43.51
			c-0.12,0-0.18-0.06-0.18-0.17V26.42h-0.09c-5.96,8.48-9.42,13.29-10.37,14.43h-0.09L22.36,26.42v23.94c0,0.12-0.06,0.17-0.18,0.17
			c-5.01,0.06-8.53,0.09-10.55,0.09l-0.06-0.17V12.01c0-1.47,0.67-2.44,2.02-2.91C13.85,8.99,14.23,8.93,14.72,8.93z"/>
		<path class="st2" d="M66.25,8.93c0.1,0.02,0.15,0.08,0.15,0.17v41.26c0,0.12-0.05,0.17-0.15,0.17c-5.01,0.06-8.53,0.09-10.55,0.09
			l-0.09-0.17V11.78c0.3-1.9,1.27-2.85,2.91-2.85H66.25z"/>
		<path class="st2" d="M71.06,8.93h7.46c0.1,0.02,0.15,0.08,0.15,0.17v20.45c0.12-0.1,3.7-6.61,10.76-19.55
			c0.71-0.72,1.59-1.08,2.64-1.08h9.21l0.18,0.09C93.97,22.63,90.19,29.6,90.11,29.91c0.34,0.39,5.09,7.23,14.26,20.54v0.17h-9.98
			c-1.78,0-3.12-0.98-4.01-2.94c-7.69-11.64-11.56-17.56-11.62-17.78h-0.09v20.54c0,0.12-0.05,0.17-0.15,0.17H68.06
			c-0.12,0-0.18-0.06-0.18-0.17V12.28C67.88,10.05,68.94,8.93,71.06,8.93z"/>
		<path class="st2" d="M123.42,8.93h6.89c0.22,0,5.25,13.9,15.1,41.69h-8.02c-1.62,0-2.7-0.76-3.24-2.27
			c-1.13-3.8-1.86-5.77-2.2-5.91c-0.32-0.23-0.74-0.35-1.28-0.35h-9.54l2.79-7.94c0.28-0.83,1.45-1.19,3.51-1.08
			c0.71-0.06,0.99-0.53,0.83-1.43l-2.61-7.86l-9.57,26.82h-10.22l14.38-40.18C120.87,9.44,121.93,8.93,123.42,8.93z"/>
		<path class="st2" d="M175.39,8.93l0.18,0.09c-1.39,4.83-2.3,7.7-2.73,8.61c-0.59,0.72-1.61,1.08-3.06,1.08h-12.03v6.6h7.84
			c1.66,0,2.71,0.89,3.15,2.68c1.03,3.05,1.68,5.13,1.96,6.26h-12.87c-0.06,0.83-0.09,1.45-0.09,1.83v3.43
			c0.1,0.83,0.47,1.25,1.1,1.25h10.4c1.92,0,3.15,0.39,3.68,1.16c0.34,0.74,1.22,3.61,2.64,8.61l-0.18,0.09h-28.32
			c-0.12,0-0.18-0.06-0.18-0.17V11.69c0-1.57,1-2.49,3-2.76H175.39z"/>
		<path class="st2" d="M180.23,8.93h7.46c0.1,0.02,0.15,0.08,0.15,0.17v30.4c0.12,0.83,0.49,1.25,1.13,1.25h13.52
			c1.86,0,3.03,0.76,3.51,2.27c0.97,3.47,1.68,5.95,2.14,7.42l-0.18,0.09h-12.45c-4.28,0-10.4,0.03-18.36,0.09l-0.09-0.17V12.01
			c0-1.47,0.68-2.44,2.05-2.91C179.36,8.99,179.74,8.93,180.23,8.93z"/>
	</g>
</g>
<g>
	<g>
		<path class="st2" d="M230.87,8.68h6.06c0.19,0,4.61,13.9,13.26,41.7h-7.05c-1.43,0-2.38-0.76-2.85-2.27
			c-0.99-3.8-1.64-5.77-1.93-5.91c-0.28-0.23-0.65-0.35-1.12-0.35h-8.38l2.45-7.94c0.24-0.83,1.27-1.19,3.08-1.08
			c0.63-0.06,0.87-0.53,0.73-1.43l-2.3-7.86l-8.41,26.83h-8.98l12.64-40.19C228.64,9.19,229.57,8.68,230.87,8.68z"/>
		<path class="st2" d="M260.85,8.68c0.71,0.85,5.24,7.78,13.58,20.78V11.68c0.16-2,1.05-3,2.69-3h6.63c0.1,0.02,0.16,0.08,0.16,0.17
			v41.55l-5.43-0.03c-0.84-0.02-1.62-0.51-2.36-1.48c-0.74-0.97-2.09-3.04-4.06-6.2c-7.34-11.02-11.03-16.53-11.07-16.53v23.95
			c0,0.12-0.04,0.17-0.13,0.17c-4.4,0.06-7.49,0.09-9.27,0.09l-0.08-0.17V11.54c0.26-1.9,1.11-2.85,2.56-2.85H260.85z"/>
		<path class="st2" d="M303.79,7.93c4.94,0,9.32,2.23,13.13,6.69c-2.82,3.34-4.5,5.01-5.04,5.01c-0.44,0.06-0.7,0.12-0.81,0.17
			c-0.33,0-1.46-0.39-3.39-1.16c-0.63-0.17-1.32-0.26-2.09-0.26h-1.04c-4.58,0-7.93,2.48-10.05,7.45c-0.45,1.34-0.68,2.56-0.68,3.67
			c0,3.74,1.95,7.03,5.85,9.86c1.57,0.89,3.02,1.34,4.36,1.34c3.72,0,6.62-2.17,8.69-6.52v-0.09h-9.14
			c1.34-5.45,2.21-8.18,2.61-8.18c0.5-0.47,0.96-0.72,1.36-0.76c5.12-0.06,9.06-0.09,11.83-0.09h2.72c0.26,0,0.41,1.06,0.44,3.17
			v0.41c0,9.82-3.9,16.81-11.7,20.98c-2.38,1.01-4.79,1.51-7.21,1.51c-5.2,0-9.8-2.45-13.78-7.36c-3.1-4.21-4.65-8.84-4.65-13.88
			v-1.16c0-5.49,1.98-10.53,5.93-15.13C294.99,9.82,299.21,7.93,303.79,7.93z"/>
		<path class="st2" d="M348.88,8.68l0.16,0.09c-1.22,4.83-2.02,7.7-2.4,8.61c-0.52,0.72-1.42,1.08-2.69,1.08h-10.57v6.61h6.89
			c1.46,0,2.38,0.89,2.77,2.68c0.9,3.05,1.48,5.13,1.72,6.26h-11.3c-0.05,0.83-0.08,1.45-0.08,1.83v3.43
			c0.09,0.83,0.41,1.25,0.97,1.25h9.14c1.69,0,2.77,0.39,3.24,1.16c0.3,0.74,1.07,3.61,2.32,8.61l-0.16,0.09H324
			c-0.1,0-0.16-0.06-0.16-0.17V11.45c0-1.57,0.88-2.49,2.64-2.76H348.88z"/>
		<path class="st2" d="M353.13,8.68h6.55c0.09,0.02,0.13,0.08,0.13,0.17v30.41c0.1,0.83,0.43,1.25,0.99,1.25h11.88
			c1.64,0,2.66,0.76,3.08,2.27c0.85,3.47,1.48,5.95,1.88,7.42l-0.16,0.09h-10.94c-3.76,0-9.14,0.03-16.13,0.09l-0.08-0.17V11.77
			c0-1.47,0.6-2.44,1.8-2.91C352.37,8.74,352.7,8.68,353.13,8.68z"/>
		<path class="st2" d="M393.18,8.19h1.07c5.31,0,9.96,2.37,13.94,7.1c2.84,3.98,4.26,8.77,4.26,14.38c0,7.41-2.5,13.2-7.49,17.37
			c-3.45,2.56-6.97,3.84-10.57,3.84h-1.28c-4.94,0-9.36-2.14-13.26-6.43c-3.2-4-4.8-8.82-4.8-14.46v-0.81
			c0-7.92,2.92-13.94,8.77-18.07C386.87,9.16,390,8.19,393.18,8.19z M393.78,39.94c2.58,0,4.78-1.05,6.61-3.16
			c1.83-2.1,2.74-4.65,2.74-7.64c0-2.97-0.91-5.5-2.74-7.61c-1.83-2.1-4.03-3.16-6.61-3.16c-2.58,0-4.77,1.05-6.59,3.16
			c-1.82,2.11-2.73,4.64-2.73,7.61c0,2.99,0.91,5.53,2.73,7.64C389.01,38.88,391.2,39.94,393.78,39.94z"/>
	</g>
</g>
</svg>
